<svg width="130" height="130" viewBox="0 0 130 130" xmlns="http://www.w3.org/2000/svg" xmlns:xlink="http://www.w3.org/1999/xlink"><defs><filter x="-11.2%" y="-11.2%" width="122.5%" height="122.5%" filterUnits="objectBoundingBox" id="a"><feOffset dy="2" in="SourceAlpha" result="shadowOffsetOuter1"/><feGaussianBlur stdDeviation="2.5" in="shadowOffsetOuter1" result="shadowBlurOuter1"/><feColorMatrix values="0 0 0 0 0 0 0 0 0 0 0 0 0 0 0 0 0 0 0.25 0" in="shadowBlurOuter1" result="shadowMatrixOuter1"/><feMerge><feMergeNode in="shadowMatrixOuter1"/><feMergeNode in="SourceGraphic"/></feMerge></filter><filter x="-1.5%" y="-1.4%" width="102.9%" height="102.8%" filterUnits="objectBoundingBox" id="d"><feGaussianBlur stdDeviation=".5" in="SourceAlpha" result="shadowBlurInner1"/><feOffset dy="1" in="shadowBlurInner1" result="shadowOffsetInner1"/><feComposite in="shadowOffsetInner1" in2="SourceAlpha" operator="arithmetic" k2="-1" k3="1" result="shadowInnerInner1"/><feColorMatrix values="0 0 0 0 0 0 0 0 0 0 0 0 0 0 0 0 0 0 0.5 0" in="shadowInnerInner1"/></filter><linearGradient x1="50%" y1="100%" x2="50%" y2="0%" id="b"><stop stop-color="#379FFF" offset="0%"/><stop stop-color="#40D5FF" offset="100%"/></linearGradient><path d="M32.67 0v7.8H18.13v3.77c0 3.93 1.58 5.66 3.15 7.71 1.8 2.2 3.7 4.64 3.7 7.95 0 4.33-3 7.08-9.27 7.79v.63c6.28.7 9.26 3.46 9.26 7.79 0 3.3-1.88 5.75-3.69 7.95l-.23.3c-1.49 1.92-2.91 3.66-2.91 7.41v3.77h14.53v7.8H18.69c-7.15 0-9.9-3.54-9.9-8.5v-3.54c0-5.27 2.52-7.8 4.4-10 1.73-2.12 2.36-3.46 2.36-5.11 0-2.68-2.91-4.25-8.48-4.25H0V31.4h7.07c5.57 0 8.48-1.57 8.48-4.25 0-1.66-.63-2.99-2.36-5.12-1.88-2.2-4.4-4.72-4.4-9.99V8.5C8.8 3.53 11.54 0 18.7 0h13.98zm36 0v70.67H43.33v-7.8h16.03V7.8H43.33V0h25.34z" id="c"/></defs><g filter="url(#a)" transform="translate(5 3)" fill-rule="nonzero" fill="none"><path d="M26.85 0h66.3A26.85 26.85 0 01120 26.85v66.3A26.85 26.85 0 0193.15 120h-66.3A26.85 26.85 0 010 93.15v-66.3A26.85 26.85 0 0126.85 0z" fill="url(#b)"/><g transform="translate(22.67 25.33)"><use fill="#FFF" xlink:href="#c"/><use fill="#000" filter="url(#d)" xlink:href="#c"/></g></g></svg>