<svg width="20" height="20" viewBox="0 0 20 20" xmlns="http://www.w3.org/2000/svg"><g fill="none" fill-rule="nonzero"><path d="M5.6 18.76c-1.82 0-2.52-.9-2.52-2.16v-.9c0-1.34.64-1.98 1.12-2.54.44-.54.6-.88.6-1.3 0-.68-.74-1.08-2.16-1.08H.84v-2h1.8c1.42 0 2.16-.4 2.16-1.08 0-.42-.16-.76-.6-1.3-.48-.56-1.12-1.2-1.12-2.54v-.9C3.08 1.7 3.78.8 5.6.8h3.56v1.98h-3.7v.96c0 1 .4 1.44.8 1.96.46.56.94 1.18.94 2.02 0 1.1-.76 1.8-2.36 1.98v.16c1.6.18 2.36.88 2.36 1.98 0 .84-.48 1.46-.94 2.02-.4.52-.8.96-.8 1.96v.96h3.7v1.98H5.6z" fill="#0B5294"/><path fill="#2381D8" d="M18.34.8v17.96h-6.48v-1.98h4.1v-14h-4.1V.8z"/></g></svg>