<?xml version="1.0" encoding="UTF-8"?>
<svg width="180px" height="180px" viewBox="0 0 180 180" version="1.1" xmlns="http://www.w3.org/2000/svg" xmlns:xlink="http://www.w3.org/1999/xlink">
    <!-- Generator: Sketch 57.1 (83088) - https://sketch.com -->
    <title>Artboard</title>
    <desc>Created with Sketch.</desc>
    <defs>
        <linearGradient x1="50%" y1="100%" x2="50%" y2="0%" id="linearGradient-1">
            <stop stop-color="#379FFF" offset="0%"></stop>
            <stop stop-color="#40D5FF" offset="100%"></stop>
        </linearGradient>
        <path d="M82.815534,44 L82.815534,54.2110407 L63.774972,54.2110407 L63.774972,59.1618483 C63.774972,64.3189396 65.8334111,66.5880598 67.8918503,69.2697472 C70.2590553,72.1577183 72.7291822,75.3551149 72.7291822,79.6870716 C72.7291822,85.359872 68.8181479,88.9698359 60.5843913,89.8981123 L60.5843913,90.7232469 C68.8181479,91.6515233 72.7291822,95.2614872 72.7291822,100.934288 C72.7291822,105.266244 70.2590553,108.463641 67.8918503,111.351612 L67.5908542,111.741492 C65.6374859,114.261549 63.774972,116.553985 63.774972,121.459511 L63.774972,126.410319 L82.815534,126.410319 L82.815534,136.621359 L64.4954257,136.621359 C55.1295276,136.621359 51.5272591,131.979977 51.5272591,125.482042 L51.5272591,120.84066 C51.5272591,113.930158 54.8207618,110.629619 57.2908887,107.741648 C59.5551718,104.956819 60.3785474,103.203408 60.3785474,101.037429 C60.3785474,97.5306074 56.570435,95.4677709 49.2629761,95.4677709 L40,95.4677709 L40,85.1535883 L49.2629761,85.1535883 C56.570435,85.1535883 60.3785474,83.0907518 60.3785474,79.5839298 C60.3785474,77.4179514 59.5551718,75.6645404 57.2908887,72.8797111 C54.8207618,69.99174 51.5272591,66.6912016 51.5272591,59.7806993 L51.5272591,55.1393171 C51.5272591,48.6413821 55.1295276,44 64.4954257,44 L82.815534,44 Z M130,44 L130,136.621359 L96.7961165,136.621359 L96.7961165,126.410319 L117.804746,126.410319 L117.804746,54.2110407 L96.7961165,54.2110407 L96.7961165,44 L130,44 Z" id="path-2"></path>
        <filter x="-1.7%" y="-1.6%" width="103.3%" height="103.2%" filterUnits="objectBoundingBox" id="filter-3">
            <feGaussianBlur stdDeviation="1" in="SourceAlpha" result="shadowBlurInner1"></feGaussianBlur>
            <feOffset dx="0" dy="1" in="shadowBlurInner1" result="shadowOffsetInner1"></feOffset>
            <feComposite in="shadowOffsetInner1" in2="SourceAlpha" operator="arithmetic" k2="-1" k3="1" result="shadowInnerInner1"></feComposite>
            <feColorMatrix values="0 0 0 0 0   0 0 0 0 0   0 0 0 0 0  0 0 0 0.651824738 0" type="matrix" in="shadowInnerInner1"></feColorMatrix>
        </filter>
    </defs>
    <g id="Artboard" stroke="none" stroke-width="1" fill="none" fill-rule="evenodd">
        <rect id="Rectangle" fill="url(#linearGradient-1)" fill-rule="nonzero" x="0" y="0" width="180" height="180" rx="90"></rect>
        <g id="Shape" fill-rule="nonzero">
            <use fill="#FFFFFF" xlink:href="#path-2"></use>
            <use fill="black" fill-opacity="1" filter="url(#filter-3)" xlink:href="#path-2"></use>
        </g>
    </g>
</svg>