<svg width="180" height="180" viewBox="0 0 180 180" xmlns="http://www.w3.org/2000/svg" xmlns:xlink="http://www.w3.org/1999/xlink"><defs><linearGradient x1="50%" y1="100%" x2="50%" y2="0%" id="a"><stop stop-color="#379FFF" offset="0%"/><stop stop-color="#40D5FF" offset="100%"/></linearGradient><filter x="-1.5%" y="-1.4%" width="102.9%" height="102.8%" filterUnits="objectBoundingBox" id="c"><feGaussianBlur stdDeviation="1" in="SourceAlpha" result="shadowBlurInner1"/><feOffset dy="1" in="shadowBlurInner1" result="shadowOffsetInner1"/><feComposite in="shadowOffsetInner1" in2="SourceAlpha" operator="arithmetic" k2="-1" k3="1" result="shadowInnerInner1"/><feColorMatrix values="0 0 0 0 0 0 0 0 0 0 0 0 0 0 0 0 0 0 0.651824738 0" in="shadowInnerInner1"/></filter><path d="M83 38v11.69H61.2v5.66c0 5.9 2.36 8.5 4.72 11.57 2.71 3.3 5.54 6.96 5.54 11.92 0 6.5-4.48 10.63-13.9 11.69v.94c9.42 1.06 13.9 5.2 13.9 11.69 0 4.96-2.83 8.62-5.54 11.92l-.34.45c-2.24 2.88-4.37 5.5-4.37 11.12v5.66H83V144H62.03c-10.72 0-14.84-5.31-14.84-12.75v-5.31c0-7.9 3.77-11.69 6.6-15 2.59-3.18 3.53-5.18 3.53-7.66 0-4.02-4.36-6.38-12.72-6.38H34V85.1h10.6c8.36 0 12.72-2.36 12.72-6.38 0-2.48-.94-4.48-3.53-7.67-2.83-3.3-6.6-7.08-6.6-14.99v-5.31C47.2 43.3 51.31 38 62.03 38H83zm54 0v106H99v-11.69h24.04V49.7H99V38h38z" id="b"/></defs><g fill="none" fill-rule="nonzero"><rect width="180" height="180" rx="40.27" fill="url(#a)"/><use fill="#FFF" xlink:href="#b"/><use fill="#000" filter="url(#c)" xlink:href="#b"/></g></svg>