<svg width="180" height="180" viewBox="0 0 180 180" xmlns="http://www.w3.org/2000/svg" xmlns:xlink="http://www.w3.org/1999/xlink"><defs><linearGradient x1="50%" y1="100%" x2="50%" y2="0%" id="a"><stop stop-color="#379FFF" offset="0%"/><stop stop-color="#40D5FF" offset="100%"/></linearGradient><filter x="-1.7%" y="-1.6%" width="103.3%" height="103.2%" filterUnits="objectBoundingBox" id="c"><feGaussianBlur stdDeviation="1" in="SourceAlpha" result="shadowBlurInner1"/><feOffset dy="1" in="shadowBlurInner1" result="shadowOffsetInner1"/><feComposite in="shadowOffsetInner1" in2="SourceAlpha" operator="arithmetic" k2="-1" k3="1" result="shadowInnerInner1"/><feColorMatrix values="0 0 0 0 0 0 0 0 0 0 0 0 0 0 0 0 0 0 0.651824738 0" in="shadowInnerInner1"/></filter><path d="M82.82 44v10.21H63.77v4.95c0 5.16 2.06 7.43 4.12 10.11 2.37 2.89 4.84 6.09 4.84 10.42 0 5.67-3.91 9.28-12.15 10.2v.83c8.24.93 12.15 4.54 12.15 10.21 0 4.34-2.47 7.53-4.84 10.42l-.3.4c-1.95 2.51-3.82 4.8-3.82 9.71v4.95h19.05v10.21H64.5c-9.37 0-12.97-4.64-12.97-11.14v-4.64c0-6.91 3.3-10.21 5.76-13.1 2.27-2.78 3.09-4.54 3.09-6.7 0-3.5-3.81-5.57-11.12-5.57H40V85.15h9.26c7.31 0 11.12-2.06 11.12-5.57 0-2.16-.82-3.92-3.09-6.7-2.47-2.89-5.76-6.19-5.76-13.1v-4.64c0-6.5 3.6-11.14 12.97-11.14h18.32zM130 44v92.62H96.8v-10.21h21v-72.2h-21V44H130z" id="b"/></defs><g fill="none" fill-rule="nonzero"><path fill="url(#a)" d="M0 0h180v180H0z"/><use fill="#FFF" xlink:href="#b"/><use fill="#000" filter="url(#c)" xlink:href="#b"/></g></svg>